Coordinates
version=1
nRows=35
nColumns=38
inDegrees=no

Units are S.I. units (second, meters, Newtons, ...)
If the header above contains a line with 'inDegrees', this indicates whether rotational values are in degrees (yes) or radians (no).

endheader
time	pelvis_tilt	pelvis_list	pelvis_rotation	pelvis_tx	pelvis_ty	pelvis_tz	hip_flexion_r	hip_adduction_r	hip_rotation_r	knee_angle_r	ankle_angle_r	subtalar_angle_r	mtp_angle_r	hip_flexion_l	hip_adduction_l	hip_rotation_l	knee_angle_l	ankle_angle_l	subtalar_angle_l	mtp_angle_l	lumbar_extension	lumbar_bending	lumbar_rotation	arm_flex_r	arm_add_r	arm_rot_r	elbow_flex_r	pro_sup_r	wrist_flex_r	wrist_dev_r	arm_flex_l	arm_add_l	arm_rot_l	elbow_flex_l	pro_sup_l	wrist_flex_l	wrist_dev_l
5	-1.80629	1.45211	0.0814509	0.681239	1.0742	0.977964	0.10027	0.0935505	-0.134423	0.239402	0.0642732	0	0	-0.0368938	-0.0906178	-0.246449	0	0.0177222	0	0	-0.265288	0.0989522	0.176721	0.604333	-0.382988	0.48174	0.936036	1.34546	0	0	0.477097	-0.255174	0.216219	1.07518	1.33756	0	0
5.01	-1.81634	1.45194	0.092043	0.681389	1.07365	0.97788	0.101157	0.0934131	-0.134726	0.239736	0.0646389	0	0	-0.0357371	-0.090517	-0.245864	0	0.0178771	0	0	-0.266535	0.0993569	0.176239	0.616818	-0.381013	0.486611	0.925307	1.35614	0	0	0.486989	-0.25383	0.216902	1.06803	1.34228	0	0
5.02	-1.8199	1.45183	0.0962742	0.681562	1.07311	0.97784	0.101121	0.0932746	-0.13515	0.239822	0.0648934	0	0	-0.0356148	-0.0903324	-0.245155	0	0.0179513	0	0	-0.268161	0.0988785	0.177244	0.628082	-0.381171	0.493249	0.916109	1.35115	0	0	0.498983	-0.251635	0.220831	1.05924	1.33785	0	0
5.03	-1.82322	1.4518	0.100299	0.681755	1.07257	0.977815	0.101	0.093037	-0.135505	0.23982	0.065116	0	0	-0.0356275	-0.0900184	-0.244502	0	0.0179644	0	0	-0.270104	0.098774	0.177187	0.640211	-0.380516	0.500697	0.907091	1.34581	0	0	0.509745	-0.249901	0.222578	1.0516	1.33443	0	0
5.04	-1.82736	1.45179	0.105175	0.681958	1.07202	0.977798	0.100927	0.0927532	-0.135861	0.239747	0.0653356	0	0	-0.035599	-0.0896936	-0.243992	0	0.0181234	0	0	-0.272142	0.0989466	0.176381	0.653236	-0.379161	0.509116	0.897324	1.34104	0	0	0.519539	-0.248293	0.222521	1.04475	1.33261	0	0
5.05	-1.83119	1.45188	0.10977	0.682155	1.07148	0.977791	0.10078	0.0923968	-0.136192	0.239622	0.0654801	0	0	-0.0357417	-0.0892725	-0.243441	0	0.0180429	0	0	-0.274299	0.0989461	0.175567	0.66653	-0.377605	0.517761	0.886773	1.33691	0	0	0.529258	-0.246629	0.222383	1.03801	1.33088	0	0
5.06	-1.83549	1.45198	0.114832	0.68234	1.07093	0.977768	0.100699	0.0920406	-0.136531	0.23952	0.0656142	0	0	-0.0358232	-0.0888328	-0.242822	0	0.0177753	0	0	-0.27637	0.0988203	0.17507	0.679727	-0.376249	0.526984	0.876254	1.33265	0	0	0.539418	-0.244828	0.223838	1.03064	1.32951	0	0
5.07	-1.84033	1.45218	0.120533	0.682558	1.0704	0.977735	0.100773	0.09143	-0.137125	0.239557	0.0658522	0	0	-0.0356951	-0.0882493	-0.242219	0	0.0174735	0	0	-0.278391	0.0984968	0.174913	0.692617	-0.375309	0.536613	0.86632	1.32769	0	0	0.550319	-0.242535	0.226242	1.02224	1.32823	0	0
5.08	-1.84291	1.45237	0.124093	0.682797	1.0699	0.977717	0.100583	0.090827	-0.137958	0.239502	0.0658849	0	0	-0.0355166	-0.087737	-0.241972	0	0.0174552	0	0	-0.280589	0.0978791	0.175428	0.704721	-0.375286	0.545753	0.856646	1.32192	0	0	0.562495	-0.23977	0.230173	1.01259	1.3266	0	0
5.09	-1.84433	1.45239	0.126346	0.683002	1.06942	0.977716	0.100205	0.0905207	-0.138456	0.239252	0.0657821	0	0	-0.0355842	-0.087376	-0.241453	0	0.0173694	0	0	-0.283155	0.0978148	0.175204	0.717902	-0.37452	0.556495	0.846481	1.31558	0	0	0.573756	-0.237873	0.232641	1.00409	1.3243	0	0
5.1	-1.84461	1.45222	0.127259	0.683179	1.06892	0.977737	0.0995253	0.0905476	-0.138384	0.238737	0.0658296	0	0	-0.0359799	-0.0872732	-0.241193	0	0.0172639	0	0	-0.285996	0.0982754	0.174179	0.73354	-0.374203	0.576408	0.835901	1.28352	0	0	0.583728	-0.237111	0.23436	0.997053	1.31826	0	0
5.11	-1.8551	1.45222	0.138262	0.683306	1.06842	0.977693	0.100236	0.0902409	-0.13833	0.238508	0.065865	0	0	-0.0350881	-0.0868858	-0.240831	0	0.0170412	0	0	-0.287606	0.0976709	0.174837	0.744357	-0.37242	0.577647	0.825548	1.30384	0	0	0.594813	-0.235157	0.237312	0.988818	1.3212	0	0
5.12	-1.85558	1.45208	0.139633	0.683496	1.06792	0.977711	0.0994742	0.0901808	-0.138855	0.237675	0.0654748	0	0	-0.0353354	-0.0867151	-0.240235	0	0.0169433	0	0	-0.290504	0.0979848	0.173856	0.759564	-0.37234	0.597891	0.815423	1.27068	0	0	0.605164	-0.234541	0.239356	0.981928	1.3142	0	0
5.13	-1.86788	1.45205	0.152265	0.683569	1.06743	0.977659	0.100419	0.0898954	-0.138809	0.237424	0.0654376	0	0	-0.0339502	-0.0862858	-0.240423	0	0.0170824	0	0	-0.292411	0.0981552	0.172876	0.772052	-0.368555	0.601481	0.804009	1.29164	0	0	0.614593	-0.234178	0.239185	0.97551	1.31728	0	0
5.14	-1.85295	1.44941	0.137362	0.68338	1.06705	0.977902	0.104049	0.0951437	-0.161403	0.248834	0.067964	0	0	-0.0354904	-0.089713	-0.241751	0	0.0179391	0	0	-0.297032	0.0998113	0.175059	0.786955	-0.369958	0.624879	0.794061	1.24483	0	0	0.627815	-0.23329	0.247267	0.966119	1.2999	0	0
5.15	-1.87206	1.45149	0.157113	0.68378	1.06653	0.977678	0.100053	0.0901582	-0.139077	0.237272	0.0650389	0	0	-0.0332741	-0.086293	-0.240887	0	0.0177356	0	0	-0.298573	0.0986156	0.172323	0.801278	-0.367141	0.637078	0.784227	1.23948	0	0	0.636573	-0.234196	0.248183	0.961498	1.29658	0	0
5.16	-1.88297	1.45118	0.16814	0.683833	1.06612	0.977632	0.10145	0.0900664	-0.13947	0.237987	0.0649718	0	0	-0.0315679	-0.0862684	-0.240818	0	0.0179304	0	0	-0.30065	0.0982621	0.173298	0.812105	-0.364429	0.636698	0.773042	1.26303	0	0	0.64827	-0.233003	0.251603	0.953021	1.30374	0	0
5.17	-1.88947	1.45092	0.17454	0.683911	1.06575	0.977627	0.102528	0.0898818	-0.14009	0.239132	0.0652857	0	0	-0.0303061	-0.0863203	-0.241184	0	0.0182744	0	0	-0.303011	0.0975807	0.175165	0.823443	-0.364165	0.644857	0.763965	1.25536	0	0	0.661152	-0.232016	0.25959	0.943212	1.30064	0	0
5.18	-1.89411	1.45081	0.178915	0.683932	1.06541	0.977644	0.103374	0.0896752	-0.14036	0.240319	0.0655365	0	0	-0.0292451	-0.0863011	-0.241319	0	0.0186066	0	0	-0.306376	0.0977665	0.174477	0.837616	-0.361179	0.657026	0.753571	1.24821	0	0	0.671294	-0.233473	0.263619	0.936943	1.29713	0	0
5.19	-1.89629	1.45044	0.180606	0.68393	1.06508	0.977687	0.103846	0.0899165	-0.140092	0.241163	0.0654285	0	0	-0.0284911	-0.0865801	-0.241034	0	0.0189433	0	0	-0.309772	0.0975064	0.175364	0.850238	-0.359481	0.66678	0.743789	1.24038	0	0	0.683065	-0.233473	0.26848	0.929018	1.29157	0	0
5.2	-1.8978	1.45003	0.181424	0.683936	1.06477	0.977755	0.10415	0.090269	-0.13937	0.241649	0.0650585	0	0	-0.0278469	-0.0868908	-0.241222	0	0.0192742	0	0	-0.312799	0.096267	0.178618	0.860537	-0.360297	0.674292	0.735639	1.22671	0	0	0.697586	-0.231718	0.278473	0.917621	1.28118	0	0
5.21	-1.90068	1.44985	0.183544	0.683893	1.0645	0.977818	0.104718	0.0904226	-0.138737	0.242488	0.0648738	0	0	-0.027169	-0.0869962	-0.241602	0	0.0194692	0	0	-0.316694	0.0963049	0.178133	0.87478	-0.356923	0.686347	0.724784	1.21535	0	0	0.707897	-0.233986	0.283287	0.912219	1.27394	0	0
5.22	-1.90392	1.44965	0.185943	0.683851	1.06425	0.977872	0.105434	0.0905554	-0.138318	0.243589	0.0648452	0	0	-0.0265727	-0.0870628	-0.242041	0	0.0195139	0	0	-0.320133	0.0957415	0.178815	0.888185	-0.354888	0.698446	0.714092	1.20194	0	0	0.719571	-0.2354	0.290614	0.904472	1.26779	0	0
5.23	-1.90866	1.44942	0.189768	0.683828	1.06402	0.977914	0.106391	0.0906749	-0.13779	0.244682	0.0647555	0	0	-0.0258628	-0.0870595	-0.242482	0	0.0195001	0	0	-0.322822	0.0941717	0.181696	0.899657	-0.355703	0.709519	0.705604	1.18371	0	0	0.734109	-0.234408	0.301936	0.892237	1.26087	0	0
5.24	-1.91365	1.44944	0.19401	0.683797	1.06384	0.977952	0.107392	0.0905357	-0.137332	0.245816	0.0646786	0	0	-0.0250799	-0.0868076	-0.242925	9.93757e-05	0.0194993	0	0	-0.326589	0.093969	0.180974	0.915467	-0.353005	0.727499	0.69512	1.16412	0	0	0.745019	-0.236713	0.307159	0.885395	1.25333	0	0
5.25	-1.90117	1.44723	0.180368	0.683493	1.06379	0.978202	0.113046	0.0953736	-0.161704	0.260072	0.0677791	0	0	-0.0259635	-0.0899728	-0.244869	0.00137965	0.0201692	0	0	-0.331849	0.0946761	0.184087	0.932092	-0.356243	0.762612	0.689433	1.08444	0	0	0.7597	-0.236731	0.31917	0.873866	1.23409	0	0
5.26	-1.92774	1.44969	0.206711	0.683777	1.06358	0.977962	0.110121	0.0898348	-0.136353	0.248235	0.0647451	0	0	-0.0228766	-0.0860356	-0.244253	0.0018071	0.0195943	0	0	-0.333369	0.0919378	0.182239	0.944082	-0.351688	0.761885	0.678132	1.11638	0	0	0.769615	-0.237705	0.32178	0.866879	1.23999	0	0
5.27	-1.93682	1.44981	0.215099	0.683751	1.06352	0.977926	0.111822	0.0894521	-0.135577	0.249462	0.0647653	0	0	-0.0215694	-0.0856331	-0.244769	0.00248089	0.019585	0	0	-0.33661	0.0905941	0.183401	0.957369	-0.351016	0.776529	0.669321	1.09927	0	0	0.782261	-0.237761	0.329716	0.857223	1.23647	0	0
5.28	-1.93436	1.44755	0.211888	0.683419	1.06356	0.978077	0.118884	0.094204	-0.160307	0.263634	0.0676887	0	0	-0.0211235	-0.0887079	-0.245791	0.00338328	0.019918	0	0	-0.340742	0.0902544	0.1877	0.967432	-0.352066	0.78346	0.662487	1.09191	0	0	0.797074	-0.235456	0.339338	0.845667	1.2346	0	0
5.29	-1.9465	1.44774	0.224059	0.683477	1.06359	0.977997	0.122043	0.0930429	-0.163616	0.26725	0.0690777	0	0	-0.019213	-0.0881022	-0.245485	0.00397157	0.01989	0	0	-0.343834	0.0890237	0.18821	0.980055	-0.350587	0.79639	0.653282	1.08282	0	0	0.809776	-0.235334	0.347453	0.835881	1.23184	0	0
5.3	-1.95479	1.44788	0.232466	0.683551	1.06365	0.97797	0.123818	0.0924035	-0.16447	0.268729	0.0696698	0	0	-0.0180055	-0.0875927	-0.245141	0.00401477	0.0194818	0	0	-0.34744	0.0882135	0.187984	0.994884	-0.34828	0.81903	0.641798	1.0613	0	0	0.822331	-0.236013	0.356192	0.826433	1.22512	0	0
5.31	-1.95969	1.44771	0.237916	0.683673	1.06373	0.977968	0.1247	0.0922985	-0.164934	0.268939	0.0696645	0	0	-0.017032	-0.0875092	-0.244642	0.00417588	0.0191611	0	0	-0.351198	0.0873429	0.188625	1.00825	-0.347481	0.840642	0.632523	1.03461	0	0	0.836083	-0.23517	0.366492	0.816037	1.21624	0	0
5.32	-1.93549	1.44812	0.21523	0.683861	1.0639	0.978192	0.120358	0.0928606	-0.163658	0.265821	0.067828	0	0	-0.0199995	-0.0876412	-0.243584	0.00366007	0.0185314	0	0	-0.359324	0.0870098	0.187729	1.0267	-0.34817	0.885177	0.625606	0.952955	0	0	0.851031	-0.243052	0.404026	0.81687	1.11522	0	0
5.33	-1.91325	1.45204	0.195055	0.684241	1.06429	0.978187	0.110397	0.0871535	-0.138607	0.251801	0.0645226	0	0	-0.0230527	-0.0836407	-0.241785	0.00313902	0.0178183	0	0	-0.373326	0.0820208	0.172409	1.04762	-0.332036	0.896968	0.613343	0.973471	0	0	0.855811	-0.290638	0.458878	0.866635	1.10294	0	0
5.34	-1.93308	1.45146	0.215402	0.6844	1.06443	0.978099	0.113312	0.0870378	-0.139191	0.25199	0.0639628	0	0	-0.0203116	-0.0834977	-0.241418	0.00265224	0.0170072	0	0	-0.374856	0.0817732	0.174716	1.05733	-0.332006	0.908707	0.605858	0.962556	0	0	0.870007	-0.286261	0.468956	0.852015	1.09184	0	0
